<svg width="485" height="270" viewBox="0 0 485 270" fill="none" xmlns="http://www.w3.org/2000/svg">
<g filter="url(#filter0_d)">
<rect y="160" width="302" height="40" fill="#F99219"/>
<path d="M477 180C477 225.287 437.377 262 388.5 262C339.623 262 300 225.287 300 180C300 134.713 339.623 98 388.5 98C437.377 98 477 134.713 477 180ZM337.994 180C337.994 205.845 360.606 226.797 388.5 226.797C416.394 226.797 439.006 205.845 439.006 180C439.006 154.155 416.394 133.203 388.5 133.203C360.606 133.203 337.994 154.155 337.994 180Z" fill="#F99219"/>
</g>
<g filter="url(#filter1_d)">
<rect x="46" y="78" width="137" height="118" fill="#F99219"/>
<rect x="78" y="101" width="30" height="30" fill="#46ADCE"/>
<rect x="121" y="101" width="30" height="30" fill="#46ADCE"/>
<path d="M114.5 0L209.33 86.25H19.6702L114.5 0Z" fill="#F99219"/>
<rect x="52" width="33" height="64" fill="#F99219"/>
</g>
<g filter="url(#filter2_d)">
<path d="M49.36 152.04C47.12 152.04 45.4267 152.533 44.28 153.52C43.1333 154.48 42.56 155.933 42.56 157.88V159.6H54.08V164.8H42.56V175H36.08V157.92C36.08 154.32 37.2 151.52 39.44 149.52C41.7067 147.52 44.8667 146.52 48.92 146.52C50.52 146.52 52.0267 146.693 53.44 147.04C54.8533 147.36 56.08 147.84 57.12 148.48L55.12 153.6C53.52 152.56 51.6 152.04 49.36 152.04ZM70.5294 152.2V169.8H75.3694V175H59.1694V169.8H64.0494V152.2H59.1694V147H75.3694V152.2H70.5294ZM95.1053 146.52C98.4386 146.52 101.039 147.573 102.905 149.68C104.772 151.76 105.705 154.733 105.705 158.6V175H99.2253V158.8C99.2253 156.56 98.692 154.88 97.6253 153.76C96.5853 152.613 95.132 152.04 93.2653 152.04C91.292 152.04 89.7053 152.653 88.5053 153.88C87.332 155.08 86.7453 156.867 86.7453 159.24V175H80.2653V147H86.5453V150.4C87.5053 149.12 88.7053 148.16 90.1453 147.52C91.5853 146.853 93.2386 146.52 95.1053 146.52ZM112.101 147H118.581V169.72H132.621V175H112.101V147ZM142.533 179.48C140.639 179.48 138.906 179.12 137.333 178.4C135.786 177.707 134.506 176.707 133.493 175.4L137.013 171.08C138.533 173.133 140.253 174.16 142.173 174.16C144.839 174.16 146.173 172.613 146.173 169.52V152.2H136.373V147H152.653V169.16C152.653 172.6 151.799 175.173 150.093 176.88C148.386 178.613 145.866 179.48 142.533 179.48ZM184.094 147V175H177.814V171.6C175.894 174.187 173.068 175.48 169.334 175.48C166.028 175.48 163.441 174.44 161.574 172.36C159.734 170.253 158.814 167.267 158.814 163.4V147H165.294V163.2C165.294 165.44 165.814 167.133 166.854 168.28C167.921 169.4 169.361 169.96 171.174 169.96C173.121 169.96 174.681 169.36 175.854 168.16C177.028 166.933 177.614 165.133 177.614 162.76V147H184.094ZM199.934 175.48C197.721 175.48 195.574 175.187 193.494 174.6C191.441 173.987 189.787 173.2 188.534 172.24L190.734 167.36C191.934 168.24 193.361 168.947 195.014 169.48C196.667 170.013 198.321 170.28 199.974 170.28C201.814 170.28 203.174 170.013 204.054 169.48C204.934 168.92 205.374 168.187 205.374 167.28C205.374 166.613 205.107 166.067 204.574 165.64C204.067 165.187 203.401 164.827 202.574 164.56C201.774 164.293 200.681 164 199.294 163.68C197.161 163.173 195.414 162.667 194.054 162.16C192.694 161.653 191.521 160.84 190.534 159.72C189.574 158.6 189.094 157.107 189.094 155.24C189.094 153.613 189.534 152.147 190.414 150.84C191.294 149.507 192.614 148.453 194.374 147.68C196.161 146.907 198.334 146.52 200.894 146.52C202.681 146.52 204.427 146.733 206.134 147.16C207.841 147.587 209.334 148.2 210.614 149L208.614 153.92C206.027 152.453 203.441 151.72 200.854 151.72C199.041 151.72 197.694 152.013 196.814 152.6C195.961 153.187 195.534 153.96 195.534 154.92C195.534 155.88 196.027 156.6 197.014 157.08C198.027 157.533 199.561 157.987 201.614 158.44C203.747 158.947 205.494 159.453 206.854 159.96C208.214 160.467 209.374 161.267 210.334 162.36C211.321 163.453 211.814 164.933 211.814 166.8C211.814 168.4 211.361 169.867 210.454 171.2C209.574 172.507 208.241 173.547 206.454 174.32C204.667 175.093 202.494 175.48 199.934 175.48Z" fill="#1D1854"/>
</g>
<defs>
<filter id="filter0_d" x="0" y="98" width="485" height="172" filterUnits="userSpaceOnUse" color-interpolation-filters="sRGB">
<feFlood flood-opacity="0" result="BackgroundImageFix"/>
<feColorMatrix in="SourceAlpha" type="matrix" values="0 0 0 0 0 0 0 0 0 0 0 0 0 0 0 0 0 0 127 0" result="hardAlpha"/>
<feOffset dx="4" dy="4"/>
<feGaussianBlur stdDeviation="2"/>
<feComposite in2="hardAlpha" operator="out"/>
<feColorMatrix type="matrix" values="0 0 0 0 0.533333 0 0 0 0 0.294133 0 0 0 0 0.0133333 0 0 0 1 0"/>
<feBlend mode="normal" in2="BackgroundImageFix" result="effect1_dropShadow"/>
<feBlend mode="normal" in="SourceGraphic" in2="effect1_dropShadow" result="shape"/>
</filter>
<filter id="filter1_d" x="19.6702" y="0" width="197.66" height="204" filterUnits="userSpaceOnUse" color-interpolation-filters="sRGB">
<feFlood flood-opacity="0" result="BackgroundImageFix"/>
<feColorMatrix in="SourceAlpha" type="matrix" values="0 0 0 0 0 0 0 0 0 0 0 0 0 0 0 0 0 0 127 0" result="hardAlpha"/>
<feOffset dx="4" dy="4"/>
<feGaussianBlur stdDeviation="2"/>
<feComposite in2="hardAlpha" operator="out"/>
<feColorMatrix type="matrix" values="0 0 0 0 0.533333 0 0 0 0 0.294133 0 0 0 0 0.0133333 0 0 0 1 0"/>
<feBlend mode="normal" in2="BackgroundImageFix" result="effect1_dropShadow"/>
<feBlend mode="normal" in="SourceGraphic" in2="effect1_dropShadow" result="shape"/>
</filter>
<filter id="filter2_d" x="36.08" y="146.52" width="179.734" height="36.96" filterUnits="userSpaceOnUse" color-interpolation-filters="sRGB">
<feFlood flood-opacity="0" result="BackgroundImageFix"/>
<feColorMatrix in="SourceAlpha" type="matrix" values="0 0 0 0 0 0 0 0 0 0 0 0 0 0 0 0 0 0 127 0" result="hardAlpha"/>
<feOffset dx="2" dy="2"/>
<feGaussianBlur stdDeviation="1"/>
<feColorMatrix type="matrix" values="0 0 0 0 1 0 0 0 0 1 0 0 0 0 1 0 0 0 1 0"/>
<feBlend mode="normal" in2="BackgroundImageFix" result="effect1_dropShadow"/>
<feBlend mode="normal" in="SourceGraphic" in2="effect1_dropShadow" result="shape"/>
</filter>
</defs>
</svg>
