<svg width="577" height="168" viewBox="0 0 577 168" fill="none" xmlns="http://www.w3.org/2000/svg">
<g filter="url(#filter0_d)">
<path d="M48.9219 0.984375C56.1406 0.984375 63.7578 1.24219 71.7734 1.75781C79.8359 2.27344 88.2969 3.28125 97.1562 4.78125V22.6406C93.2188 21.5156 89.2344 20.6016 85.2031 19.8984C81.1719 19.1484 77.1172 18.5625 73.0391 18.1406C69.0078 17.7188 64.9766 17.4141 60.9453 17.2266C56.9141 17.0391 52.9062 16.9219 48.9219 16.875C47 16.875 44.8672 16.9219 42.5234 17.0156C40.2266 17.0625 37.7422 17.1562 35.0703 17.2969C32.4453 17.4375 29.7031 17.6484 26.8438 17.9297C23.9844 18.2109 21.0781 18.5625 18.125 18.9844V44.5781H79.5781V61.875H18.125V108H0.828125V4.78125C9.59375 3.28125 18.0078 2.27344 26.0703 1.75781C34.1797 1.24219 41.7969 0.984375 48.9219 0.984375ZM130.906 108H113.047V27.8438H130.906V108ZM122.047 0C125.516 0 128.258 0.585937 130.273 1.75781C132.289 2.88281 133.297 4.6875 133.297 7.17188V10.6875C133.297 12.9375 132.289 14.5547 130.273 15.5391C128.258 16.5234 125.516 17.0156 122.047 17.0156C118.719 17.0156 116.023 16.5234 113.961 15.5391C111.945 14.5547 110.938 12.9375 110.938 10.6875V7.17188C110.938 4.6875 111.945 2.88281 113.961 1.75781C116.023 0.585937 118.719 0 122.047 0ZM160.156 49.9219C159.969 48.4219 159.523 47.1562 158.82 46.125C158.164 45.0938 157.438 44.25 156.641 43.5938C155.75 42.7969 154.766 42.1406 153.688 41.625L161.562 27.8438C163.297 28.4531 165.031 29.2734 166.766 30.3047C168.219 31.1953 169.742 32.3438 171.336 33.75C172.977 35.1094 174.406 36.7969 175.625 38.8125C177.969 37.3125 180.359 35.9062 182.797 34.5938C185.281 33.2344 187.859 32.0625 190.531 31.0781C193.25 30.0938 196.086 29.3203 199.039 28.7578C202.039 28.1484 205.25 27.8438 208.672 27.8438C215.891 27.8438 222.078 28.4531 227.234 29.6719C232.438 30.8438 236.68 32.625 239.961 35.0156C243.289 37.3594 245.727 40.2891 247.273 43.8047C248.82 47.3203 249.594 51.4219 249.594 56.1094V108H231.172V60.4688C231.172 57.8438 230.82 55.5938 230.117 53.7188C229.414 51.7969 228.453 50.1797 227.234 48.8672C226.062 47.5078 224.68 46.4062 223.086 45.5625C221.492 44.7188 219.828 44.0859 218.094 43.6641C216.406 43.1953 214.672 42.8906 212.891 42.75C211.109 42.5625 209.422 42.4688 207.828 42.4688C204.828 42.4688 201.969 42.6797 199.25 43.1016C196.531 43.5234 193.953 44.1094 191.516 44.8594C189.078 45.5625 186.781 46.4062 184.625 47.3906C182.469 48.375 180.453 49.4062 178.578 50.4844V108H160.156V49.9219ZM290.094 108H274.062V2.39062H290.094V108ZM337.062 112.781C337.062 114.891 336.828 116.812 336.359 118.547C335.891 120.328 335.258 121.922 334.461 123.328C333.711 124.781 332.844 126.07 331.859 127.195C330.922 128.32 329.938 129.305 328.906 130.148C326.516 132.117 323.797 133.641 320.75 134.719L312.875 120.938C313.953 120.469 314.914 119.836 315.758 119.039C316.508 118.383 317.211 117.516 317.867 116.438C318.57 115.406 319.016 114.141 319.203 112.641V27.8438H337.062V112.781ZM328.203 0C331.578 0 334.297 0.585937 336.359 1.75781C338.422 2.88281 339.453 4.6875 339.453 7.17188V10.6875C339.453 12.9375 338.422 14.5547 336.359 15.5391C334.297 16.5234 331.578 17.0156 328.203 17.0156C324.828 17.0156 322.133 16.5234 320.117 15.5391C318.102 14.5547 317.094 12.9375 317.094 10.6875V7.17188C317.094 4.6875 318.102 2.88281 320.117 1.75781C322.133 0.585937 324.828 0 328.203 0ZM379.672 82.5469C379.672 84.7031 380.445 86.5078 381.992 87.9609C383.586 89.4141 385.695 90.6094 388.32 91.5469C390.992 92.4375 394.062 93.0938 397.531 93.5156C401 93.8906 404.609 94.0781 408.359 94.0781C412.297 94.0781 416 93.8672 419.469 93.4453C422.938 92.9766 425.961 92.2969 428.539 91.4062C431.117 90.4688 433.156 89.2734 434.656 87.8203C436.156 86.3672 436.906 84.6094 436.906 82.5469V27.8438L455.609 29.25V87.0469C455.609 89.5781 454.977 91.8984 453.711 94.0078C452.492 96.1172 450.781 98.0156 448.578 99.7031C446.375 101.344 443.773 102.773 440.773 103.992C437.773 105.211 434.516 106.219 431 107.016C427.531 107.812 423.852 108.398 419.961 108.773C416.117 109.195 412.25 109.406 408.359 109.406C404.422 109.406 400.531 109.195 396.688 108.773C392.844 108.398 389.164 107.812 385.648 107.016C382.18 106.219 378.945 105.211 375.945 103.992C372.945 102.773 370.344 101.344 368.141 99.7031C365.938 98.0156 364.203 96.1406 362.938 94.0781C361.719 91.9688 361.109 89.625 361.109 87.0469V29.25L379.672 27.8438V82.5469ZM521.984 27.8438C527.562 27.8438 533 28.1953 538.297 28.8984C543.594 29.5547 548.352 30.7031 552.57 32.3438C556.789 33.9375 560.258 36.1172 562.977 38.8828C565.695 41.6484 567.312 45.0938 567.828 49.2188L551.516 53.7188C551.516 51.2812 550.672 49.2656 548.984 47.6719C547.344 46.0312 545.141 44.7656 542.375 43.875C539.656 42.9375 536.516 42.2812 532.953 41.9062C529.391 41.5312 525.734 41.3438 521.984 41.3438C518.375 41.3438 514.789 41.5312 511.227 41.9062C507.711 42.2344 504.547 42.8672 501.734 43.8047C498.969 44.6953 496.719 45.9375 494.984 47.5312C493.297 49.125 492.453 51.1875 492.453 53.7188V62.2969H567.828V86.625C567.828 89.3906 567.219 91.8516 566 94.0078C564.781 96.1172 563.094 97.9688 560.938 99.5625C558.781 101.109 556.227 102.445 553.273 103.57C550.367 104.648 547.203 105.516 543.781 106.172C540.406 106.828 536.844 107.297 533.094 107.578C529.391 107.859 525.688 108 521.984 108C516.312 108 510.828 107.672 505.531 107.016C500.234 106.312 495.477 105.164 491.258 103.57C487.039 101.93 483.57 99.75 480.852 97.0312C478.18 94.2656 476.609 90.7969 476.141 86.625L492.453 82.125C492.453 84.7031 493.297 86.7891 494.984 88.3828C496.719 89.9766 498.969 91.2188 501.734 92.1094C504.547 93 507.711 93.6094 511.227 93.9375C514.789 94.2188 518.375 94.3594 521.984 94.3594C525.734 94.3594 529.391 94.1953 532.953 93.8672C536.516 93.4922 539.656 92.8594 542.375 91.9688C545.141 91.0312 547.344 89.7891 548.984 88.2422C550.672 86.6484 551.516 84.6094 551.516 82.125V73.5469H476.141V49.2188C476.141 46.4531 476.75 44.0156 477.969 41.9062C479.188 39.75 480.852 37.8984 482.961 36.3516C485.117 34.7578 487.648 33.4219 490.555 32.3438C493.461 31.2188 496.602 30.3281 499.977 29.6719C503.398 29.0156 506.961 28.5469 510.664 28.2656C514.414 27.9844 518.188 27.8438 521.984 27.8438ZM21.4904 152.252C19.5464 152.252 17.7944 151.832 16.2344 150.992C14.6744 150.152 13.4504 148.988 12.5624 147.5C11.6984 145.988 11.2664 144.284 11.2664 142.388C11.2664 140.492 11.6984 138.8 12.5624 137.312C13.4504 135.824 14.6744 134.66 16.2344 133.82C17.7944 132.98 19.5464 132.56 21.4904 132.56C23.4584 132.56 25.2224 132.98 26.7824 133.82C28.3424 134.66 29.5544 135.824 30.4184 137.312C31.3064 138.8 31.7504 140.492 31.7504 142.388C31.7504 144.284 31.3064 145.988 30.4184 147.5C29.5544 148.988 28.3424 150.152 26.7824 150.992C25.2224 151.832 23.4584 152.252 21.4904 152.252ZM21.4904 148.4C23.1464 148.4 24.5144 147.848 25.5944 146.744C26.6744 145.64 27.2144 144.188 27.2144 142.388C27.2144 140.588 26.6744 139.136 25.5944 138.032C24.5144 136.928 23.1464 136.376 21.4904 136.376C19.8344 136.376 18.4664 136.928 17.3864 138.032C16.3304 139.136 15.8024 140.588 15.8024 142.388C15.8024 144.188 16.3304 145.64 17.3864 146.744C18.4664 147.848 19.8344 148.4 21.4904 148.4ZM60.4599 132.56C62.8839 132.56 64.8039 133.268 66.2199 134.684C67.6359 136.076 68.3439 138.176 68.3439 140.984V152H63.8439V141.56C63.8439 139.88 63.4719 138.62 62.7279 137.78C61.9839 136.916 60.9159 136.484 59.5239 136.484C58.0119 136.484 56.7999 136.988 55.8879 137.996C54.9759 138.98 54.5199 140.396 54.5199 142.244V152H50.0199V141.56C50.0199 139.88 49.6479 138.62 48.9039 137.78C48.1599 136.916 47.0919 136.484 45.6999 136.484C44.1639 136.484 42.9399 136.976 42.0279 137.96C41.1399 138.944 40.6959 140.372 40.6959 142.244V152H36.1959V132.776H40.4799V135.224C41.1999 134.36 42.0999 133.7 43.1799 133.244C44.2599 132.788 45.4599 132.56 46.7799 132.56C48.2199 132.56 49.4919 132.836 50.5959 133.388C51.7239 133.916 52.6119 134.708 53.2599 135.764C54.0519 134.756 55.0719 133.976 56.3199 133.424C57.5679 132.848 58.9479 132.56 60.4599 132.56ZM109.249 142.352C109.249 145.328 108.253 147.668 106.261 149.372C104.293 151.076 101.473 152.048 97.8006 152.288V158.984H93.5526V152.324C89.8806 152.084 87.0606 151.112 85.0926 149.408C83.1246 147.704 82.1406 145.352 82.1406 142.352C82.1406 139.376 83.1246 137.06 85.0926 135.404C87.0606 133.724 89.8806 132.764 93.5526 132.524V125.288H97.8006V132.524C101.473 132.764 104.293 133.724 106.261 135.404C108.253 137.084 109.249 139.4 109.249 142.352ZM86.5686 142.352C86.5686 144.2 87.1326 145.64 88.2606 146.672C89.4126 147.704 91.1766 148.328 93.5526 148.544V136.34C91.1766 136.532 89.4126 137.132 88.2606 138.14C87.1326 139.148 86.5686 140.552 86.5686 142.352ZM97.8006 148.544C102.505 148.112 104.857 146.048 104.857 142.352C104.857 140.528 104.269 139.124 103.093 138.14C101.941 137.132 100.177 136.532 97.8006 136.34V148.544ZM132.15 132.776V149.084C132.15 155.852 128.826 159.236 122.178 159.236C120.426 159.236 118.746 158.996 117.138 158.516C115.554 158.06 114.246 157.388 113.214 156.5L115.23 153.116C116.046 153.812 117.042 154.364 118.218 154.772C119.394 155.18 120.63 155.384 121.926 155.384C123.894 155.384 125.334 154.904 126.246 153.944C127.182 153.008 127.65 151.556 127.65 149.588V148.688C126.93 149.48 126.054 150.092 125.022 150.524C123.99 150.932 122.874 151.136 121.674 151.136C119.106 151.136 117.078 150.428 115.59 149.012C114.126 147.596 113.394 145.472 113.394 142.64V132.776H117.894V142.064C117.894 143.768 118.278 145.052 119.046 145.916C119.838 146.756 120.954 147.176 122.394 147.176C124.002 147.176 125.274 146.684 126.21 145.7C127.17 144.716 127.65 143.288 127.65 141.416V132.776H132.15ZM138.114 132.776H142.614V140.588H152.298V132.776H156.798V152H152.298V144.404H142.614V152H138.114V132.776ZM181.765 132.776V149.084C181.765 155.852 178.309 159.236 171.397 159.236C169.549 159.236 167.797 158.996 166.141 158.516C164.485 158.06 163.117 157.388 162.037 156.5L164.053 153.116C164.893 153.812 165.949 154.364 167.221 154.772C168.517 155.204 169.825 155.42 171.145 155.42C173.257 155.42 174.805 154.94 175.789 153.98C176.773 153.02 177.265 151.556 177.265 149.588V148.58C176.497 149.42 175.561 150.056 174.457 150.488C173.353 150.92 172.141 151.136 170.821 151.136C168.997 151.136 167.341 150.752 165.853 149.984C164.389 149.192 163.225 148.088 162.361 146.672C161.521 145.256 161.101 143.636 161.101 141.812C161.101 139.988 161.521 138.38 162.361 136.988C163.225 135.572 164.389 134.48 165.853 133.712C167.341 132.944 168.997 132.56 170.821 132.56C172.213 132.56 173.473 132.788 174.601 133.244C175.753 133.7 176.713 134.396 177.481 135.332V132.776H181.765ZM171.505 147.32C173.209 147.32 174.601 146.816 175.681 145.808C176.785 144.776 177.337 143.444 177.337 141.812C177.337 140.204 176.785 138.896 175.681 137.888C174.601 136.88 173.209 136.376 171.505 136.376C169.777 136.376 168.361 136.88 167.257 137.888C166.177 138.896 165.637 140.204 165.637 141.812C165.637 143.444 166.177 144.776 167.257 145.808C168.361 146.816 169.777 147.32 171.505 147.32ZM206.545 132.776V152H202.261V149.516C201.517 150.428 200.593 151.112 199.489 151.568C198.409 152.024 197.209 152.252 195.889 152.252C194.017 152.252 192.337 151.844 190.849 151.028C189.385 150.212 188.233 149.06 187.393 147.572C186.577 146.084 186.169 144.356 186.169 142.388C186.169 140.42 186.577 138.704 187.393 137.24C188.233 135.752 189.385 134.6 190.849 133.784C192.337 132.968 194.017 132.56 195.889 132.56C197.137 132.56 198.277 132.776 199.309 133.208C200.365 133.64 201.277 134.276 202.045 135.116V132.776H206.545ZM196.393 148.4C198.049 148.4 199.417 147.848 200.497 146.744C201.577 145.64 202.117 144.188 202.117 142.388C202.117 140.588 201.577 139.136 200.497 138.032C199.417 136.928 198.049 136.376 196.393 136.376C194.737 136.376 193.369 136.928 192.289 138.032C191.233 139.136 190.705 140.588 190.705 142.388C190.705 144.188 191.233 145.64 192.289 146.744C193.369 147.848 194.737 148.4 196.393 148.4ZM231.404 152V139.256L224.924 149.984H222.98L216.608 139.22V152H212.504V132.776H217.22L224.06 144.8L231.224 132.776H235.436L235.472 152H231.404ZM250.58 148.436C252.668 148.436 254.408 147.74 255.8 146.348L258.176 149.12C257.336 150.152 256.256 150.932 254.936 151.46C253.616 151.988 252.128 152.252 250.472 152.252C248.36 152.252 246.5 151.832 244.892 150.992C243.284 150.152 242.036 148.988 241.148 147.5C240.284 145.988 239.852 144.284 239.852 142.388C239.852 140.516 240.272 138.836 241.112 137.348C241.976 135.836 243.152 134.66 244.64 133.82C246.152 132.98 247.856 132.56 249.752 132.56C251.552 132.56 253.184 132.956 254.648 133.748C256.136 134.516 257.312 135.632 258.176 137.096C259.04 138.536 259.472 140.228 259.472 142.172L244.748 145.052C245.204 146.156 245.936 146.996 246.944 147.572C247.952 148.148 249.164 148.436 250.58 148.436ZM249.752 136.16C248.096 136.16 246.752 136.7 245.72 137.78C244.712 138.86 244.208 140.312 244.208 142.136V142.172L255.08 140.084C254.768 138.908 254.132 137.96 253.172 137.24C252.236 136.52 251.096 136.16 249.752 136.16ZM263.868 132.776H268.368V140.588H278.052V132.776H282.552V152H278.052V144.404H268.368V152H263.868V132.776ZM312.847 132.56C315.271 132.56 317.191 133.268 318.607 134.684C320.023 136.076 320.731 138.176 320.731 140.984V152H316.231V141.56C316.231 139.88 315.859 138.62 315.115 137.78C314.371 136.916 313.303 136.484 311.911 136.484C310.399 136.484 309.187 136.988 308.275 137.996C307.363 138.98 306.907 140.396 306.907 142.244V152H302.407V141.56C302.407 139.88 302.035 138.62 301.291 137.78C300.547 136.916 299.479 136.484 298.087 136.484C296.551 136.484 295.327 136.976 294.415 137.96C293.527 138.944 293.083 140.372 293.083 142.244V152H288.583V132.776H292.867V135.224C293.587 134.36 294.487 133.7 295.567 133.244C296.647 132.788 297.847 132.56 299.167 132.56C300.607 132.56 301.879 132.836 302.983 133.388C304.111 133.916 304.999 134.708 305.647 135.764C306.439 134.756 307.459 133.976 308.707 133.424C309.955 132.848 311.335 132.56 312.847 132.56ZM344.99 132.776V152H340.706V149.516C339.962 150.428 339.038 151.112 337.934 151.568C336.854 152.024 335.654 152.252 334.334 152.252C332.462 152.252 330.782 151.844 329.294 151.028C327.83 150.212 326.678 149.06 325.838 147.572C325.022 146.084 324.614 144.356 324.614 142.388C324.614 140.42 325.022 138.704 325.838 137.24C326.678 135.752 327.83 134.6 329.294 133.784C330.782 132.968 332.462 132.56 334.334 132.56C335.582 132.56 336.722 132.776 337.754 133.208C338.81 133.64 339.722 134.276 340.49 135.116V132.776H344.99ZM334.838 148.4C336.494 148.4 337.862 147.848 338.942 146.744C340.022 145.64 340.562 144.188 340.562 142.388C340.562 140.588 340.022 139.136 338.942 138.032C337.862 136.928 336.494 136.376 334.838 136.376C333.182 136.376 331.814 136.928 330.734 138.032C329.678 139.136 329.15 140.588 329.15 142.388C329.15 144.188 329.678 145.64 330.734 146.744C331.814 147.848 333.182 148.4 334.838 148.4ZM379.835 132.776V149.084C379.835 155.852 376.379 159.236 369.467 159.236C367.619 159.236 365.867 158.996 364.211 158.516C362.555 158.06 361.187 157.388 360.107 156.5L362.123 153.116C362.963 153.812 364.019 154.364 365.291 154.772C366.587 155.204 367.895 155.42 369.215 155.42C371.327 155.42 372.875 154.94 373.859 153.98C374.843 153.02 375.335 151.556 375.335 149.588V148.58C374.567 149.42 373.631 150.056 372.527 150.488C371.423 150.92 370.211 151.136 368.891 151.136C367.067 151.136 365.411 150.752 363.923 149.984C362.459 149.192 361.295 148.088 360.431 146.672C359.591 145.256 359.171 143.636 359.171 141.812C359.171 139.988 359.591 138.38 360.431 136.988C361.295 135.572 362.459 134.48 363.923 133.712C365.411 132.944 367.067 132.56 368.891 132.56C370.283 132.56 371.543 132.788 372.671 133.244C373.823 133.7 374.783 134.396 375.551 135.332V132.776H379.835ZM369.575 147.32C371.279 147.32 372.671 146.816 373.751 145.808C374.855 144.776 375.407 143.444 375.407 141.812C375.407 140.204 374.855 138.896 373.751 137.888C372.671 136.88 371.279 136.376 369.575 136.376C367.847 136.376 366.431 136.88 365.327 137.888C364.247 138.896 363.707 140.204 363.707 141.812C363.707 143.444 364.247 144.776 365.327 145.808C366.431 146.816 367.847 147.32 369.575 147.32ZM394.463 152.252C392.519 152.252 390.767 151.832 389.207 150.992C387.647 150.152 386.423 148.988 385.535 147.5C384.671 145.988 384.239 144.284 384.239 142.388C384.239 140.492 384.671 138.8 385.535 137.312C386.423 135.824 387.647 134.66 389.207 133.82C390.767 132.98 392.519 132.56 394.463 132.56C396.431 132.56 398.195 132.98 399.755 133.82C401.315 134.66 402.527 135.824 403.391 137.312C404.279 138.8 404.723 140.492 404.723 142.388C404.723 144.284 404.279 145.988 403.391 147.5C402.527 148.988 401.315 150.152 399.755 150.992C398.195 151.832 396.431 152.252 394.463 152.252ZM394.463 148.4C396.119 148.4 397.487 147.848 398.567 146.744C399.647 145.64 400.187 144.188 400.187 142.388C400.187 140.588 399.647 139.136 398.567 138.032C397.487 136.928 396.119 136.376 394.463 136.376C392.807 136.376 391.439 136.928 390.359 138.032C389.303 139.136 388.775 140.588 388.775 142.388C388.775 144.188 389.303 145.64 390.359 146.744C391.439 147.848 392.807 148.4 394.463 148.4ZM427.11 144.296H423.618V152H419.118V132.776H423.618V140.552H427.218L432.906 132.776H437.73L430.746 142.028L438.198 152H432.906L427.11 144.296ZM458.796 132.776V152H454.296V136.592H447.096L446.916 140.408C446.796 142.952 446.556 145.088 446.196 146.816C445.86 148.52 445.272 149.876 444.432 150.884C443.616 151.868 442.488 152.36 441.048 152.36C440.376 152.36 439.548 152.228 438.564 151.964L438.78 148.184C439.116 148.256 439.404 148.292 439.644 148.292C440.556 148.292 441.24 147.932 441.696 147.212C442.152 146.468 442.44 145.592 442.56 144.584C442.704 143.552 442.824 142.088 442.92 140.192L443.244 132.776H458.796ZM482.424 132.56C484.344 132.56 486.06 132.98 487.572 133.82C489.084 134.636 490.272 135.8 491.136 137.312C492 138.8 492.432 140.492 492.432 142.388C492.432 144.284 492 145.988 491.136 147.5C490.272 148.988 489.084 150.152 487.572 150.992C486.06 151.832 484.344 152.252 482.424 152.252C480.744 152.252 479.208 151.928 477.816 151.28C476.424 150.608 475.272 149.672 474.36 148.472C473.448 147.248 472.86 145.856 472.596 144.296H469.356V152H464.856V132.776H469.356V140.228H472.668C472.956 138.716 473.556 137.384 474.468 136.232C475.38 135.056 476.52 134.156 477.888 133.532C479.256 132.884 480.768 132.56 482.424 132.56ZM482.424 148.436C483.48 148.436 484.428 148.196 485.268 147.716C486.108 147.212 486.768 146.504 487.248 145.592C487.728 144.656 487.968 143.588 487.968 142.388C487.968 140.564 487.44 139.112 486.384 138.032C485.352 136.928 484.032 136.376 482.424 136.376C480.816 136.376 479.496 136.928 478.464 138.032C477.432 139.112 476.916 140.564 476.916 142.388C476.916 144.212 477.432 145.676 478.464 146.78C479.52 147.884 480.84 148.436 482.424 148.436ZM513.156 132.776V152H508.656V144.548C506.808 145.436 504.876 145.88 502.86 145.88C500.388 145.88 498.492 145.316 497.172 144.188C495.852 143.036 495.192 141.284 495.192 138.932V132.776H499.692V138.644C499.692 139.868 500.052 140.78 500.772 141.38C501.492 141.98 502.512 142.28 503.832 142.28C505.512 142.28 507.12 141.92 508.656 141.2V132.776H513.156ZM537.928 132.776V152H533.644V149.516C532.9 150.428 531.976 151.112 530.872 151.568C529.792 152.024 528.592 152.252 527.272 152.252C525.4 152.252 523.72 151.844 522.232 151.028C520.768 150.212 519.616 149.06 518.776 147.572C517.96 146.084 517.552 144.356 517.552 142.388C517.552 140.42 517.96 138.704 518.776 137.24C519.616 135.752 520.768 134.6 522.232 133.784C523.72 132.968 525.4 132.56 527.272 132.56C528.52 132.56 529.66 132.776 530.692 133.208C531.748 133.64 532.66 134.276 533.428 135.116V132.776H537.928ZM527.776 148.4C529.432 148.4 530.8 147.848 531.88 146.744C532.96 145.64 533.5 144.188 533.5 142.388C533.5 140.588 532.96 139.136 531.88 138.032C530.8 136.928 529.432 136.376 527.776 136.376C526.12 136.376 524.752 136.928 523.672 138.032C522.616 139.136 522.088 140.588 522.088 142.388C522.088 144.188 522.616 145.64 523.672 146.744C524.752 147.848 526.12 148.4 527.776 148.4Z" fill="#1D1854"/>
</g>
<defs>
<filter id="filter0_d" x="0.828125" y="0" width="576" height="167.236" filterUnits="userSpaceOnUse" color-interpolation-filters="sRGB">
<feFlood flood-opacity="0" result="BackgroundImageFix"/>
<feColorMatrix in="SourceAlpha" type="matrix" values="0 0 0 0 0 0 0 0 0 0 0 0 0 0 0 0 0 0 127 0" result="hardAlpha"/>
<feOffset dx="5" dy="4"/>
<feGaussianBlur stdDeviation="2"/>
<feColorMatrix type="matrix" values="0 0 0 0 1 0 0 0 0 1 0 0 0 0 1 0 0 0 1 0"/>
<feBlend mode="normal" in2="BackgroundImageFix" result="effect1_dropShadow"/>
<feBlend mode="normal" in="SourceGraphic" in2="effect1_dropShadow" result="shape"/>
</filter>
</defs>
</svg>
